<svg width="96" height="96" viewBox="0 0 64 64" fill="none" xmlns="http://www.w3.org/2000/svg">
    <defs>
        <linearGradient id="gradLunchBowl" x1="18" y1="44" x2="40" y2="26" gradientUnits="userSpaceOnUse">
            <stop stop-color="#C5FFE1"/>
            <stop offset="1" stop-color="#7DE9C4"/>
        </linearGradient>
        <linearGradient id="gradLunchSoup" x1="20" y1="30" x2="38" y2="26" gradientUnits="userSpaceOnUse">
            <stop stop-color="#E4FFF4"/>
            <stop offset="1" stop-color="#C7F8E5"/>
        </linearGradient>
        <linearGradient id="gradLunchFork" x1="42" y1="20" x2="42" y2="44" gradientUnits="userSpaceOnUse">
            <stop stop-color="#7AC6FF"/>
            <stop offset="1" stop-color="#4DA1FF"/>
        </linearGradient>
        <filter id="neoLunch" x="-30%" y="-30%" width="160%" height="160%">
            <feDropShadow dx="0" dy="5" stdDeviation="5" flood-color="#000000" flood-opacity="0.16"/>
            <feDropShadow dx="0" dy="-3" stdDeviation="4" flood-color="#FFFFFF" flood-opacity="0.9"/>
        </filter>
        <filter id="glowLunch" x="-80%" y="-80%" width="260%" height="260%">
            <feGaussianBlur stdDeviation="8" result="blur"/>
            <feColorMatrix in="blur" type="matrix"
                           values="0 0 0 0 0.65
                0 0 0 0 1
                0 0 0 0 0.85
                0 0 0 0.6 0"/>
        </filter>
    </defs>

    <circle cx="30" cy="34" r="20" filter="url(#glowLunch)" opacity="0.7"/>

    <g filter="url(#neoLunch)">
        <path d="M18 30C18 27.5 19.9 25.6 22.4 25.6H35.6C38.1 25.6 40 27.5 40 30C40 35.8 35.3 40.4 29.6 40.4H28.4C22.7 40.4 18 35.8 18 30Z"
              fill="url(#gradLunchBowl)"/>
        <rect x="25.8" y="40.4" width="8.4" height="4.4" rx="2.2" fill="#6AD5AE"/>
        <path d="M20 29C20 27.9 21.1 27 22.6 27H35.4C36.9 27 38 27.9 38 29"
              fill="url(#gradLunchSoup)"/>

        <path d="M42 22V30" stroke="url(#gradLunchFork)" stroke-width="3.5" stroke-linecap="round"/>
        <path d="M40 22V26" stroke="url(#gradLunchFork)" stroke-width="3.5" stroke-linecap="round"/>
        <path d="M44 22V26" stroke="url(#gradLunchFork)" stroke-width="3.5" stroke-linecap="round"/>
        <rect x="40.3" y="30" width="3.4" height="12.5" rx="1.7" fill="url(#gradLunchFork)"/>
    </g>
</svg>
