<?xml version="1.0" encoding="utf-8"?>
<svg width="800px" height="800px" viewBox="0 0 1024 1024" class="icon" xmlns="http://www.w3.org/2000/svg">
    <style>
        :root {
            --color1: #8D3F07;
            --color2: #9D4608;
            --color3: #FFFFFF;
            --color4: #EFEC00;
        }
    </style>
    <path d="M571.24864 83.71712c249.08288 0 451.01056 201.92256 451.01056 451.01056 0 249.08288-201.92256 451.01056-451.01056 451.01056V83.71712z" fill="var(--color1)" />
    <path d="M571.24864 83.71712c-249.08288 0-451.01056 201.92256-451.01056 451.01056 0 249.08288 201.92256 451.01056 451.01056 451.01056V83.71712z" fill="var(--color2)" />
    <path d="M571.24864 144.55296c-215.48544 0-390.17472 174.68928-390.17472 390.17472s174.68928 390.17472 390.17472 390.17472V144.55296z" fill="var(--color3)" />
    <path d="M491.55072 494.0288L252.35456 192.44032c-6.03648-7.60832-15.19104-10.73664-24.19712-10.0352a28.22656 28.22656 0 0 0-5.77536-0.60416H39.92576a28.09856 28.09856 0 0 0-28.10368 28.10368 28.09856 28.09856 0 0 0 28.10368 28.10368h176.82432l230.7584 290.94912a28.1088 28.1088 0 0 0 44.04224-34.92864z" fill="var(--color4)" />
</svg>
