<?xml version="1.0" encoding="utf-8"?>
<svg width="800px" height="800px" viewBox="0 0 1024 1024" class="icon" xmlns="http://www.w3.org/2000/svg">
    <style>
        :root {
            --color1: #FF4F2A;
            --color2: #FFE000;
            --color3: #FFB600;
            --color4: #FFFABC;
            --color5: #FFFFFF;
            --color6: #FF1A26;
        }
    </style>
    <path d="M508.1088 508.14464m-492.96384 0a492.96384 492.96384 0 1 0 985.92768 0 492.96384 492.96384 0 1 0-985.92768 0Z" fill="var(--color1)" />
    <path d="M508.1088 75.66336c238.85312 0 432.48128 193.62816 432.48128 432.48128 0 238.85312-193.62816 432.48128-432.48128 432.48128V75.66336z" fill="var(--color2)" />
    <path d="M508.1088 75.66336c-238.85312 0-432.48128 193.62816-432.48128 432.48128 0 238.85312 193.62816 432.48128 432.48128 432.48128V75.66336z" fill="var(--color3)" />
    <path d="M508.1088 207.17568S396.38016 219.8016 333.24032 331.35104 253.25568 533.4016 263.7824 604.95872c35.77856 197.84192 244.3264 204.15488 244.3264 204.15488V207.17568z" fill="var(--color4)" />
    <path d="M508.1088 207.17568s111.72864 12.62592 174.86848 124.17536 79.97952 202.05056 69.4528 273.60768c-35.77856 197.84192-244.3264 204.15488-244.3264 204.15488V207.17568z" fill="var(--color5)" />
    <path d="M508.1088 508.14464c-57.5232 0-104.15104 46.62784-104.15104 104.15104s46.63296 104.15104 104.15104 104.15104V508.14464z" fill="var(--color6)" />
    <path d="M508.1088 508.14464c57.5232 0 104.15104 46.62784 104.15104 104.15104s-46.63296 104.15104-104.15104 104.15104V508.14464z" fill="var(--color1)" />
</svg>
