<?xml version="1.0" encoding="utf-8"?>
<svg width="800px" height="800px" viewBox="0 0 1024 1024" class="icon" xmlns="http://www.w3.org/2000/svg">
    <style>
        :root {
            --color1: #ED0000;
            --color2: #EB4E41;
            --color3: #30C03F;
            --color4: #97CF43;
            --color5: #770000;
        }
    </style>
    <path d="M511.85664 150.01088c238.49472 0 431.83104 193.33632 431.83104 431.83104 0 238.49472-193.33632 431.82592-431.83104 431.82592V150.01088z" fill="var(--color1)" />
    <path d="M511.85664 150.01088c-238.49472 0-431.83104 193.33632-431.83104 431.83104 0 238.49472 193.33632 431.82592 431.83104 431.82592V150.01088z" fill="var(--color2)" />
    <path d="M483.08224 180.77696c-22.95808-49.54624 21.6064-118.9888 99.54304-155.1104 77.93664-36.11648 159.73376-25.23136 182.69184 24.31488L483.08224 180.77696z" fill="var(--color3)" />
    <path d="M483.08224 180.77696c22.95808 49.54624 104.7552 60.43136 182.69184 24.31488 77.93664-36.11648 122.50624-105.56416 99.54304-155.1104L483.08224 180.77696z" fill="var(--color4)" />
    <path d="M337.45408 351.32928m-28.01152 0a28.01152 28.01152 0 1 0 56.02304 0 28.01152 28.01152 0 1 0-56.02304 0Z" fill="var(--color5)" />
    <path d="M511.85664 351.32928m-28.01152 0a28.01152 28.01152 0 1 0 56.02304 0 28.01152 28.01152 0 1 0-56.02304 0Z" fill="var(--color5)" />
    <path d="M686.26432 351.32928m-28.01152 0a28.01152 28.01152 0 1 0 56.02304 0 28.01152 28.01152 0 1 0-56.02304 0Z" fill="var(--color5)" />
    <path d="M236.20096 466.58048m-28.01152 0a28.01152 28.01152 0 1 0 56.02304 0 28.01152 28.01152 0 1 0-56.02304 0Z" fill="var(--color5)" />
    <path d="M419.97312 466.58048m-28.01152 0a28.01152 28.01152 0 1 0 56.02304 0 28.01152 28.01152 0 1 0-56.02304 0Z" fill="var(--color5)" />
    <path d="M603.74528 466.58048m-28.01152 0a28.01152 28.01152 0 1 0 56.02304 0 28.01152 28.01152 0 1 0-56.02304 0Z" fill="var(--color5)" />
    <path d="M787.51744 466.58048m-28.01152 0a28.01152 28.01152 0 1 0 56.02304 0 28.01152 28.01152 0 1 0-56.02304 0Z" fill="var(--color5)" />
    <path d="M337.45408 581.8368m-28.01152 0a28.01152 28.01152 0 1 0 56.02304 0 28.01152 28.01152 0 1 0-56.02304 0Z" fill="var(--color5)" />
    <path d="M511.85664 581.8368m-28.01152 0a28.01152 28.01152 0 1 0 56.02304 0 28.01152 28.01152 0 1 0-56.02304 0Z" fill="var(--color5)" />
    <path d="M686.26432 581.8368m-28.01152 0a28.01152 28.01152 0 1 0 56.02304 0 28.01152 28.01152 0 1 0-56.02304 0Z" fill="var(--color5)" />
    <path d="M337.45408 812.34944m-28.01152 0a28.01152 28.01152 0 1 0 56.02304 0 28.01152 28.01152 0 1 0-56.02304 0Z" fill="var(--color5)" />
    <path d="M511.85664 812.34944m-28.01152 0a28.01152 28.01152 0 1 0 56.02304 0 28.01152 28.01152 0 1 0-56.02304 0Z" fill="var(--color5)" />
    <path d="M686.26432 812.34944m-28.01152 0a28.01152 28.01152 0 1 0 56.02304 0 28.01152 28.01152 0 1 0-56.02304 0Z" fill="var(--color5)" />
    <path d="M236.20096 697.09312m-28.01152 0a28.01152 28.01152 0 1 0 56.02304 0 28.01152 28.01152 0 1 0-56.02304 0Z" fill="var(--color5)" />
    <path d="M419.97312 697.09312m-28.01152 0a28.01152 28.01152 0 1 0 56.02304 0 28.01152 28.01152 0 1 0-56.02304 0Z" fill="var(--color5)" />
    <path d="M603.74528 697.09312m-28.01152 0a28.01152 28.01152 0 1 0 56.02304 0 28.01152 28.01152 0 1 0-56.02304 0Z" fill="var(--color5)" />
    <path d="M787.51744 697.09312m-28.01152 0a28.01152 28.01152 0 1 0 56.02304 0 28.01152 28.01152 0 1 0-56.02304 0Z" fill="var(--color5)" />
</svg>
