<?xml version="1.0" encoding="utf-8"?>
<svg width="800px" height="800px" viewBox="0 0 1024 1024" class="icon" xmlns="http://www.w3.org/2000/svg">
    <style>
        :root {
            --color1: #8D3F07;
            --color2: #D4AC6E;
            --color3: #F4C692;
            --color4: #967951;
        }
    </style>
    <path d="M514.19648 514.31424m-494.11072 0a494.11072 494.11072 0 1 0 988.22144 0 494.11072 494.11072 0 1 0-988.22144 0Z" fill="var(--color1)" />
    <path d="M514.19648 514.31424m-431.81568 0a431.81568 431.81568 0 1 0 863.63136 0 431.81568 431.81568 0 1 0-863.63136 0Z" fill="var(--color2)" />
    <path d="M515.27168 82.55488c237.98272 0.5888 430.74048 193.6384 430.74048 431.75936s-192.75776 431.17056-430.74048 431.75936V82.55488z" fill="var(--color3)" />
    <path d="M610.83136 227.33312m-32.8704 0a32.8704 32.8704 0 1 0 65.7408 0 32.8704 32.8704 0 1 0-65.7408 0Z" fill="var(--color4)" />
    <path d="M610.83136 801.29536m-32.8704 0a32.8704 32.8704 0 1 0 65.7408 0 32.8704 32.8704 0 1 0-65.7408 0Z" fill="var(--color4)" />
    <path d="M745.07776 331.60192m-32.8704 0a32.8704 32.8704 0 1 0 65.7408 0 32.8704 32.8704 0 1 0-65.7408 0Z" fill="var(--color4)" />
    <path d="M745.07776 686.30528m-32.8704 0a32.8704 32.8704 0 1 0 65.7408 0 32.8704 32.8704 0 1 0-65.7408 0Z" fill="var(--color4)" />
    <path d="M799.42144 501.23264m-32.8704 0a32.8704 32.8704 0 1 0 65.7408 0 32.8704 32.8704 0 1 0-65.7408 0Z" fill="var(--color4)" />
    <path d="M418.64192 227.33312m-32.8704 0a32.8704 32.8704 0 1 0 65.7408 0 32.8704 32.8704 0 1 0-65.7408 0Z" fill="var(--color4)" />
    <path d="M418.64192 801.29536m-32.8704 0a32.8704 32.8704 0 1 0 65.7408 0 32.8704 32.8704 0 1 0-65.7408 0Z" fill="var(--color4)" />
    <path d="M284.3904 331.60192m-32.8704 0a32.8704 32.8704 0 1 0 65.7408 0 32.8704 32.8704 0 1 0-65.7408 0Z" fill="var(--color4)" />
    <path d="M284.3904 686.30528m-32.8704 0a32.8704 32.8704 0 1 0 65.7408 0 32.8704 32.8704 0 1 0-65.7408 0Z" fill="var(--color4)" />
    <path d="M230.05184 501.23264m-32.8704 0a32.8704 32.8704 0 1 0 65.7408 0 32.8704 32.8704 0 1 0-65.7408 0Z" fill="var(--color4)" />
</svg>
