<?xml version="1.0" encoding="UTF-8"?>
<svg id="logo" xmlns="http://www.w3.org/2000/svg" viewBox="0 0 42 50">
  <defs>
    <style>
      .cls-1 {
        fill: #fff;
      }

      .cls-2 {
        fill: #3b82f6;
      }
    </style>
  </defs>
  <rect class="cls-2" y="4.28" width="42" height="42" rx="1.9" ry="1.9"/>
  <path class="cls-1" d="M35.19,19.09c-1.65-3.79-4.68-6.71-8.54-8.23-3.84-1.5-8.06-1.43-11.85.23-3.79,1.65-6.71,4.68-8.23,8.54-1.5,3.86-1.43,8.06.23,11.86,2.54,5.82,8.24,9.3,14.22,9.3,2.07,0,4.17-.41,6.17-1.3,3.79-1.65,6.71-4.68,8.23-8.54,1.5-3.86,1.43-8.06-.23-11.86ZM26.74,38.44c-7.25,3.16-15.72-.16-18.89-7.41-1.53-3.51-1.61-7.42-.21-10.98.7-1.78,1.72-3.36,3.01-4.71l2,2.07c-.98,1.04-1.78,2.3-2.33,3.7-1.11,2.85-1.06,5.97.16,8.78,1.23,2.81,3.48,4.97,6.33,6.1,1.35.53,2.78.8,4.19.8,1.56,0,3.12-.33,4.59-.96,1.12-.49,2.13-1.15,3.01-1.93l2.01,2.08c-1.14,1.01-2.43,1.85-3.87,2.48ZM25.13,34.75c-2.52,1.1-5.34,1.16-7.91.15-2.57-1.01-4.59-2.96-5.69-5.49s-1.16-5.34-.15-7.91c1.01-2.57,2.96-4.59,5.49-5.69,1.33-.57,2.73-.86,4.13-.86,1.27,0,2.55.23,3.78.71,2.57,1.01,4.59,2.96,5.69,5.49,2.27,5.22-.11,11.32-5.34,13.6ZM34.36,30.53c-.69,1.74-1.68,3.31-2.94,4.63l-2-2.08c3-3.25,3.97-8.09,2.1-12.39-1.23-2.81-3.48-4.97-6.33-6.1-2.85-1.11-5.97-1.06-8.78.16-1.08.47-2.07,1.09-2.94,1.85l-2-2.05c1.11-.99,2.39-1.8,3.79-2.42,1.84-.8,3.79-1.21,5.74-1.21,1.77,0,3.55.33,5.24,1,1.78.7,3.37,1.72,4.72,3.02,1.33,1.3,2.42,2.85,3.19,4.6,1.53,3.51,1.61,7.41.21,10.98Z"/>
  <path class="cls-1" d="M23.84,22.61c-.18.1-.35.22-.52.34-.18.12-.34.24-.5.38h0c-.46-1.85-1.66-3.29-3.21-4.12-1,1.45-1.38,3.3-.93,5.13h0c-.2-.03-.4-.07-.61-.09-.2-.03-.41-.05-.62-.06-.3-1.61-.06-3.21.58-4.59.14-.3.3-.58.47-.85.1-.17.5-.7.58-.81.05-.06.1-.12.15-.18.08.03.15.06.23.1.12.04.71.33.88.43.01,0,.03.02.04.03.29.16.57.34.83.55,1.2.92,2.13,2.2,2.61,3.74Z"/>
  <path class="cls-1" d="M24.17,29.75c-.09-.2-.15-.42-.25-.61-.05-.12-.12-.24-.17-.35-.11-.2-.23-.39-.35-.58s-.25-.37-.39-.55c-.14-.16-.29-.33-.43-.48-.1-.12-.21-.24-.34-.35-.14-.13-.29-.26-.45-.39-.16-.13-.31-.24-.48-.35-.16-.1-.32-.21-.48-.3-.6-.35-1.26-.62-1.94-.79-.22-.05-.43-.1-.64-.13-.21-.03-.42-.06-.63-.07-.21-.02-.62-.03-.62-.03-.59,0-1.17.07-1.77.22-.22.05-.42.12-.62.18-.2.06-.39.14-.58.23-.2.08-.39.18-.58.29,0,.22.03.42.06.63.03.2.13.74.15.79.43,1.72,1.42,3.17,2.73,4.17.25.2.53.39.81.56.31.16.62.32.94.45.32.14.65.25.98.33.45.13.93.2,1.41.24.21,0,.41.02.63.01.22,0,.43-.02.64-.04.2-.03.9-.15,1.05-.19.22-.05.42-.12.62-.18s.39-.14.58-.23c.2-.08.39-.18.58-.29,0-.22-.03-.42-.06-.63-.02-.12-.19-1.13-.39-1.56ZM23.28,30.8c.04.15.07.29.09.45-.25.1-.52.19-.8.26-.22.05-.42.09-.63.12-.2.04-.4.05-.59.06-.1,0-.19.01-.28,0-.12,0-.23,0-.34,0-.2,0-.42-.03-.63-.06-.02,0-.05,0-.07,0h-.01c-.31-.05-.62-.12-.92-.23-.29-.09-.58-.19-.85-.33h-.01c-1.66-.81-2.97-2.31-3.44-4.24-.04-.15-.07-.29-.09-.45.25-.1.52-.19.8-.26.63-.16,1.27-.21,1.89-.18.22.02.44.03.65.07.25.05.51.1.75.17.3.09.6.2.89.33.23.1.45.21.66.34.17.09.33.21.49.32.16.12.33.26.49.39.17.15.33.31.48.48.08.08.15.16.2.24.1.11.19.23.27.35.03.04.07.09.1.14.13.17.23.36.33.56.02.03.04.07.05.11.08.15.16.31.23.47l.09.23c.08.21.14.41.19.64h0Z"/>
  <path class="cls-1" d="M28.38,23.45c.43,1.74.22,3.51-.5,5.03-.13.3-.29.58-.46.85-.18.29-.38.55-.59.81-.21.27-.45.52-.71.73-.29.29-.61.54-.94.75,0-.22-.21-1.28-.21-1.28.23-.18.44-.36.64-.58.21-.21.4-.44.58-.67,1.09-1.48,1.54-3.42,1.06-5.35-.04-.16-.09-.31-.14-.46-.21.03-.42.07-.63.12-.63.16-1.22.41-1.76.72-.19.12-.37.24-.55.36-.2.16-.4.33-.58.51-.22.22-.44.46-.63.71-.14.19-.29.38-.42.6-.15-.13-.29-.25-.46-.37-.14-.12-.3-.24-.47-.35.37-.59.83-1.13,1.35-1.6.16-.15.33-.29.51-.42.17-.13.35-.25.52-.36.18-.12.54-.31.54-.31.52-.27,1.07-.48,1.67-.63.15-.04.85-.16,1.05-.19.21-.02.42-.03.64-.04.08.2.17.39.23.59.07.19.24.74.26.82Z"/>
</svg>