<svg width="768" height="768" viewBox="0 0 768 768" fill="none" xmlns="http://www.w3.org/2000/svg">
<path d="M88 112H200V304H88V112Z" fill="#3B82F6"/>
<rect x="125" y="142" width="38" height="123" fill="#36A2EB"/>
<path d="M88 464H200V656H88V464Z" fill="#3B82F6"/>
<rect x="125" y="494" width="38" height="123" fill="#36A2EB"/>
<rect x="88" y="336" width="464" height="96" fill="#3B82F6"/>
<rect x="120" y="368" width="400" height="32" fill="#36A2EB"/>
<path fill-rule="evenodd" clip-rule="evenodd" d="M264 144V176H565.451L616 226.549V540.98L564.98 592H375V624H577.979L577.989 624.011L578 624L648 554V213H647.626L579 144.082V144H264Z" fill="#CC0000"/>
<path fill-rule="evenodd" clip-rule="evenodd" d="M232 208H552.232L584 239.768V528.333L552.333 560H343V656H592L680 568V200H679.97L679.985 199.985L592 112L592 112H232V208Z" fill="#36A2EB"/>
<path fill-rule="evenodd" clip-rule="evenodd" d="M232 112H264H592L679.985 199.985L679.97 200H680V384L680 568L592 656H375H363H343V560H371H375H552.356L584 528.356V384V239.628L552.372 208H264H232V112ZM648 384V213.627L578.373 144H264V176H564.791L564.896 175.896L565 176L616 227V384V541L565 592H375V624H578.143L648 554.143V384Z" fill="#3B82F6"/>
</svg>
